<svg width="84" height="84" viewBox="0 0 84 84" fill="none" xmlns="http://www.w3.org/2000/svg">
<rect width="84" height="84" fill="#312347"/>
<path d="M42.5 0V9.05389C42.5 9.05389 56 9.05389 56 19.6168C56 30.1796 42.5 30.1796 42.5 30.1796V51.8084C42.5 51.8084 29 51.8084 29 62.3713C29 72.9341 42.5 72.9341 42.5 72.9341V84" stroke="white" stroke-width="3"/>
<path d="M-5.90104e-07 41.5L9.05389 41.5C9.05389 41.5 9.05389 28 19.6168 28C30.1796 28 30.1796 41.5 30.1796 41.5L51.8084 41.5C51.8084 41.5 51.8084 55 62.3713 55C72.9341 55 72.9341 41.5 72.9341 41.5L84 41.5" stroke="white" stroke-width="3"/>
</svg>
