<svg width="1919" height="824" viewBox="0 0 1919 824" fill="none" xmlns="http://www.w3.org/2000/svg">
<mask id="mask0" mask-type="alpha" maskUnits="userSpaceOnUse" x="0" y="0" width="1919" height="824">
<path d="M554 45.5C431.2 -20.9 129.833 12 0 34V824H1919V99C1888 86 1844.1 58.4 1658.5 76C1426.5 98 1174.5 -80.5 1036.5 45.5C898.5 171.5 707.5 128.5 554 45.5Z" fill="url(#paint0_linear)"/>
</mask>
<g mask="url(#mask0)">
<g filter="url(#filter0_f)">
<path d="M952 -126L-1 -126V824H1919V128.5C1781.5 118.5 1831.1 118.9 1645.5 136.5C1549.94 145.562 1502.78 144.722 1394.5 128.5C1304.5 115.017 1272 77.9999 1152.5 71.8519C1065.5 71.8519 1036.5 45.5 1036.5 45.5L952 -126Z" fill="url(#paint1_linear)" fill-opacity="0.5"/>
<path d="M952 -126L-1 -126V824H1919V128.5C1781.5 118.5 1831.1 118.9 1645.5 136.5C1549.94 145.562 1502.78 144.722 1394.5 128.5C1304.5 115.017 1272 77.9999 1152.5 71.8519C1065.5 71.8519 1036.5 45.5 1036.5 45.5L952 -126Z" fill="#9A01A1"/>
</g>
</g>
<defs>
<filter id="filter0_f" x="-56" y="-181" width="2030" height="1060" filterUnits="userSpaceOnUse" color-interpolation-filters="sRGB">
<feFlood flood-opacity="0" result="BackgroundImageFix"/>
<feBlend mode="normal" in="SourceGraphic" in2="BackgroundImageFix" result="shape"/>
<feGaussianBlur stdDeviation="27.5" result="effect1_foregroundBlur"/>
</filter>
<linearGradient id="paint0_linear" x1="364.5" y1="158.5" x2="1445" y2="335.5" gradientUnits="userSpaceOnUse">
<stop stop-color="#EC0070"/>
<stop offset="0.395833" stop-color="#9502A1"/>
<stop offset="1" stop-color="#0D9698"/>
</linearGradient>
<linearGradient id="paint1_linear" x1="70.5" y1="104.5" x2="1637" y2="373" gradientUnits="userSpaceOnUse">
<stop stop-color="#E731B5"/>
<stop offset="0.0989583" stop-color="#EC2662"/>
<stop offset="0.605487" stop-color="#9502A1"/>
<stop offset="1" stop-color="#7C0198"/>
</linearGradient>
</defs>
</svg>
