<svg width="1919" height="606" viewBox="0 0 1919 606" fill="none" xmlns="http://www.w3.org/2000/svg">
<path d="M554 39.5C431.2 -26.9 129.833 6.00002 0 28V605.5H1919V122.5C1781.5 112.5 1831.1 112.9 1645.5 130.5C1549.94 139.562 1502.78 138.722 1394.5 122.5C1304.5 109.017 1272 72 1152.5 65.8519C1065.5 65.8519 1036.5 39.5 1036.5 39.5C898.5 165.5 707.5 122.5 554 39.5Z" fill="url(#paint0_linear)"/>
<path d="M554 39.5C431.2 -26.9 129.833 6.00002 0 28V605.5H1919V122.5C1781.5 112.5 1831.1 112.9 1645.5 130.5C1549.94 139.562 1502.78 138.722 1394.5 122.5C1304.5 109.017 1272 72 1152.5 65.8519C1065.5 65.8519 1036.5 39.5 1036.5 39.5C898.5 165.5 707.5 122.5 554 39.5Z" fill="#800090"/>
<defs>
<linearGradient id="paint0_linear" x1="364.5" y1="152.5" x2="1637" y2="367" gradientUnits="userSpaceOnUse">
<stop stop-color="#C0028C"/>
<stop offset="0.605487" stop-color="#9502A1"/>
<stop offset="1" stop-color="#7C0198"/>
</linearGradient>
</defs>
</svg>
